<svg width="25" height="25" viewBox="0 0 25 25" fill="none" xmlns="http://www.w3.org/2000/svg">
<path d="M20.625 18.5C19.75 18.5 19.125 17.75 19.125 17C19.125 16.125 19.875 15.5 20.625 15.5C21.375 15.5 22.125 16.25 22.125 17C22.25 17.75 21.5 18.5 20.625 18.5ZM20.625 12.5C18.25 12.5 16.25 14.5 16.25 16.875C16.25 20.125 20.625 25 20.625 25C20.625 25 25 20.125 25 16.875C25 14.5 23 12.5 20.625 12.5ZM8.75 0L6.5 2.5H2.5C1.125 2.5 0 3.625 0 5V20C0 21.375 1.125 22.5 2.5 22.5H15.625C15.125 21.75 14.625 20.875 14.375 20H2.5V5H7.625L9.875 2.5H15.125L17.375 5H22.5V10.25C23.375 10.5 24.25 11 25 11.625V5C25 3.625 23.875 2.5 22.5 2.5H18.5L16.25 0H8.75ZM12.5 6.25C9 6.25 6.25 9 6.25 12.5C6.25 16 9 18.75 12.5 18.75C13 18.75 13.5 18.75 14 18.625C13.875 18 13.75 17.5 13.75 16.875V16C13.375 16.125 12.875 16.25 12.5 16.25C10.375 16.25 8.75 14.625 8.75 12.5C8.75 10.375 10.375 8.75 12.5 8.75C14.25 8.75 15.75 10 16.125 11.625C16.75 11.125 17.5 10.625 18.375 10.375C17.5 7.875 15.125 6.25 12.5 6.25Z" fill="white"/>
</svg>
