<svg width="24" height="23" viewBox="0 0 24 23" fill="none" xmlns="http://www.w3.org/2000/svg">
<path d="M12.3502 0C10.8421 0 9.34878 0.297443 7.9555 0.875347C6.56222 1.45325 5.29626 2.3003 4.22988 3.36812C2.07625 5.5247 0.866353 8.44964 0.866353 11.4995C0.856314 14.1549 1.77448 16.7301 3.4617 18.7787L1.16493 21.0786C1.00559 21.2403 0.897642 21.4456 0.854722 21.6687C0.811803 21.8918 0.83583 22.1226 0.923772 22.332C1.01915 22.5389 1.17378 22.7128 1.36802 22.8315C1.56226 22.9503 1.78736 23.0086 2.01473 22.999H12.3502C15.3959 22.999 18.3168 21.7874 20.4705 19.6309C22.6241 17.4743 23.834 14.5493 23.834 11.4995C23.834 8.44964 22.6241 5.5247 20.4705 3.36812C18.3168 1.21155 15.3959 0 12.3502 0ZM12.3502 20.6991H4.78233L5.85033 19.6296C6.06422 19.4142 6.18427 19.1227 6.18427 18.8189C6.18427 18.5151 6.06422 18.2237 5.85033 18.0082C4.34662 16.5041 3.41022 14.5245 3.20066 12.4066C2.9911 10.2887 3.52135 8.1635 4.70106 6.39317C5.88077 4.62284 7.63697 3.31687 9.67044 2.69775C11.7039 2.07863 13.8888 2.18468 15.853 2.99782C17.8171 3.81096 19.439 5.28088 20.4422 7.15716C21.4454 9.03343 21.7679 11.2 21.3548 13.2877C20.9417 15.3754 19.8184 17.255 18.1765 18.6065C16.5346 19.9579 14.4756 20.6974 12.3502 20.6991Z" fill="#53AF7B"/>
</svg>
