<svg width="16" height="17" viewBox="0 0 16 17" fill="none" xmlns="http://www.w3.org/2000/svg">
<path fill-rule="evenodd" clip-rule="evenodd" d="M11.4837 1.6097C11.9707 1.12301 12.6311 0.849609 13.3197 0.849609C14.0086 0.849609 14.6692 1.12327 15.1563 1.61039C15.6434 2.0975 15.9171 2.75818 15.9171 3.44706C15.9171 4.13563 15.6437 4.79601 15.157 5.28306L14.1686 6.27498C14.1376 6.31928 14.1023 6.36143 14.0629 6.40084C14.0243 6.43944 13.9831 6.47405 13.9398 6.50461L8.53782 11.926C8.36154 12.1029 8.12207 12.2023 7.87233 12.2023H5.50392C4.98507 12.2023 4.56445 11.7817 4.56445 11.2629V8.89443C4.56445 8.64469 4.66389 8.40522 4.8408 8.22894L10.2621 2.82691C10.2927 2.78362 10.3273 2.74241 10.3659 2.70381C10.4053 2.66439 10.4475 2.62913 10.4918 2.59809L11.483 1.61043L11.4837 1.6097ZM13.3197 2.72856C13.1291 2.72856 12.9464 2.80426 12.8116 2.939L12.3699 3.37917L13.3876 4.39686L13.8275 3.95531C13.9623 3.82057 14.0382 3.63762 14.0382 3.44706C14.0382 3.2565 13.9625 3.07375 13.8277 2.939C13.693 2.80426 13.5102 2.72856 13.3197 2.72856ZM6.44339 9.28456V10.3234H7.48221L12.0613 5.72785L11.0389 4.70542L6.44339 9.28456ZM1.35481 4.74495C1.8271 4.27266 2.46767 4.00732 3.1356 4.00732H3.92506C4.44392 4.00732 4.86453 4.42794 4.86453 4.9468C4.86453 5.46565 4.44392 5.88627 3.92506 5.88627H3.1356C2.966 5.88627 2.80335 5.95364 2.68342 6.07357C2.5635 6.19349 2.49613 6.35615 2.49613 6.52575V13.631C2.49613 13.8006 2.5635 13.9633 2.68342 14.0832C2.80335 14.2031 2.966 14.2705 3.1356 14.2705H10.2408C10.4104 14.2705 10.5731 14.2031 10.693 14.0832C10.8129 13.9633 10.8803 13.8006 10.8803 13.631V12.8415C10.8803 12.3227 11.3009 11.9021 11.8198 11.9021C12.3386 11.9021 12.7592 12.3227 12.7592 12.8415V13.631C12.7592 14.2989 12.4939 14.9395 12.0216 15.4118C11.5493 15.8841 10.9087 16.1494 10.2408 16.1494H3.1356C2.46767 16.1494 1.8271 15.8841 1.35481 15.4118C0.882519 14.9395 0.617188 14.2989 0.617188 13.631V6.52575C0.617188 5.85782 0.882519 5.21725 1.35481 4.74495Z" fill="#7E7E7E"/>
</svg>
